# xmcd CD database file
#
# Track frame offsets:
#	225
#	14537
#	33155
#	44402
#	59282
#	68915
#	82865
#	97400
#	108760
#	127630
#	135937
#	151650
#	163370
#
# Disc length: 2475 seconds
#
# Revision: 0
# Processed by: cddbd v1.5.2PL0 Copyright (c) Steve Scherf et al.
# Submitted via: CDex 1.51
#
DISCID=9d09a80d
DTITLE=Pepa Streichl a Truc Blues - Pepa Streichl a Truc Blues
DYEAR=1995
DGENRE=Blues
TTITLE0=Tip Day
TTITLE1=Mezi sny
TTITLE2=Reci
TTITLE3=Casu je malo
TTITLE4=Cici blues
TTITLE5=Tulacke blues
TTITLE6=Love lasko
TTITLE7=Dosla vodka dosla cola
TTITLE8=Domaci blues (Blues o tchyni)
TTITLE9=Waldemar
TTITLE10=Zatahni rolety
TTITLE11=Rocasso
TTITLE12=Blues o chlapech kytkach a tak (venovano Dite)
EXTD=YEAR: 1995
EXTT0=
EXTT1=
EXTT2=
EXTT3=
EXTT4=
EXTT5=
EXTT6=
EXTT7=
EXTT8=
EXTT9=
EXTT10=
EXTT11=
EXTT12=
PLAYORDER=
